<?xml version="1.0" encoding="UTF-8"?>
<svg xmlns="http://www.w3.org/2000/svg" version="1.1" viewBox="0 0 1787.3 574.8">
  <!-- Generator: Adobe Illustrator 30.6.0, SVG Export Plug-In . SVG Version: 2.1.4 Build 109)  -->
  <defs>
    <style>
      .st0, .st1 {
        fill: #c28c8c;
      }

      .st2, .st3 {
        fill: #96a3d4;
      }

      .st4 {
        isolation: isolate;
      }

      .st5 {
        mix-blend-mode: multiply;
      }

      .st3, .st1 {
        fill-rule: evenodd;
      }

      .st6 {
        fill: #53243c;
      }
    </style>
  </defs>
  <g class="st4">
    <g id="Calque_1">
      <path class="st3" d="M198.5,399.3c.2,96.9,79,175.5,175.9,175.5,97.3,0,175.6-66.9,175.9-163.7.7-9.2,4.7-92.5-88.6-140.9-69.2-35.9-48.2-113.5-48.2-113.5,1.8-6.7-.7-13.9-6.2-18-5.6-4.2-13.1-4.5-19.1-.9,0,0-88.7,54.2-129.1,102.7-62.6,75.1-61,151.7-60.7,158.9h0Z"/>
      <g>
        <path class="st6" d="M680.5,67c31.4,0,53.2,20.6,53.2,49.7s-21.8,53.2-54.9,53.2h-19.9v46.9h-40.8V67h62.4ZM658.9,96.3v44.3h12c13.7,0,23.5-6.7,23.5-22.1s-9.8-22.1-23.5-22.1h-12Z"/>
        <path class="st6" d="M845.8,218.7c-23.3,0-29.7-10.9-29.7-40.2s-3.2-19.5-15.6-19.5h-11.5v57.7h-40.8V67h59.6c31.4,0,53.2,11.9,53.2,39.1s-14.7,35.6-36.5,39.5h.2c20.5,0,33.3,8.9,33.3,30.8v10.6c0,15,1.9,19.5,8.1,21.1v5.9c-3.8,2.8-13.5,4.8-20.3,4.8ZM789,96.3v36.9h11.5c13.7,0,21.2-6.1,21.2-18.9s-7.9-18-20.3-18h-12.4Z"/>
        <path class="st6" d="M944.1,64.8c37.4,0,69,24.3,69,75.3s-22.9,79.9-69,79.9-69.9-26.3-69.9-77.9,25.8-77.3,69.9-77.3ZM948.8,101.3c-19.2,0-30.8,15-30.8,40.8s13.7,44.5,30.8,44.5,27.8-13.5,27.8-44.7-11.5-40.6-27.8-40.6Z"/>
        <path class="st6" d="M1036.2,168.4c1.5,10.2,3.8,18,13.7,18s13.2-9.6,13.2-26.5v-92.9h40.8v96.8c0,28.9-9.4,56.2-43.4,56.2s-42.5-23.2-42.5-51.7h18.2Z"/>
        <path class="st6" d="M1167.7,153.2v34.3h53.6v29.3h-94.4V67h91.2v29.3h-50.4v27.6h41.9v29.3h-41.9Z"/>
        <path class="st6" d="M1267.9,216.8v-119.4h-40.6v-30.4h122v30.4h-40.6v119.4h-40.8Z"/>
      </g>
      <g>
        <path class="st6" d="M816.9,369.6c0,15.2-10.6,26.6-25.8,26.6s-8.4-.8-11.4-2.7v-8c8.7-5.7,13.7-11,13.7-19.8.4-9.9-6.1-19.8-21.7-19.8-33,0-26.6,36.8-46,72.9-21.3,39.9-38.4,39.5-38.4,59.6s10.3,20.9,30,20.9c29.6,0,46.7-16.3,48.2-44.8h13.7c3.4,38-23.5,60.8-61.9,60.8s-67.2-22-67.2-59.3c0-69.1,58.1-123.1,118.9-123.1s47.9,16.7,47.9,36.5Z"/>
        <path class="st6" d="M822.6,511.6c-11-24.7-16.3-46.7-16.3-66.5,0-87.7,90-131,90-186.1s-1.1-9.5-3-13.7l7.2-3.4c11.8,10.3,16,25.4,16,42.5,0,35.7-16.3,61.2-33.8,93.1l1.1,1.1c17.1-25.5,38.7-45.6,68.7-45.6s47.9,22,47.9,44.1c0,72.9-79.8,93.4-79.8,117s6.1,9.9,11.8,10.6l-5.3,10.6c-20.9,0-31.9-19-31.9-39.1,0-68,70.6-85.8,70.6-113.9s-3.4-12.5-15.6-12.5c-32.3,0-67.2,42.5-90.8,97.6l-27.3,64.2h-9.5Z"/>
        <path class="st6" d="M1070.2,486.9c-7.6,16.3-23.9,28.5-48.2,28.5s-42.5-14.8-42.5-37.2c0-45.6,48.6-57.7,90-64.2,11.4-1.9,23.9-5.3,34.6-10.3,15.2-7.2,22-17.5,22-30.4s-6.8-23.2-27-23.2-39.9,13.7-43.7,38.4h-15.6c-1.9-36.1,29.6-55.5,69.9-55.5s60.4,20.5,60.4,49.8c0,49-59.6,71.8-59.6,101.8s3.8,15.6,14.1,15.6,15.6-6.1,17.1-21.3h12.2c1.5,22.8-11,36.5-38.7,36.5s-41.4-10.6-44.8-28.5ZM1075.2,453.1c6.1-12.5,10.6-22.8,23.2-34.6-11,5.3-23.2,6.5-34.2,10.6-11,4.6-20.9,12.2-27.3,30.8-6.5,19-6.8,34.6,6.8,34.6s22.4-22.4,31.5-41.4Z"/>
        <path class="st6" d="M1268.1,242c11.8,10.3,16,25.4,16,42.5,0,34.2-17.5,76.3-28.9,102.6l-55.8,124.6h-9.9c-10.3-22.8-16-44.8-15.6-64.6,0-94.6,90-128.8,90-187.3s-.8-9.5-3-14.4l7.2-3.4Z"/>
        <path class="st6" d="M1324.7,515.4c-44.8,0-69.1-20.9-69.1-61.5,0-69.1,76.7-120.8,127.6-120.8s51.7,13.7,51.7,39.5-16.3,38-38.7,47.5c-21.3,9.1-47.5,10.6-73.3,11-19.8,33-30,30.4-30,48.2s12.2,20.1,30.4,20.1c33.4,0,50.1-15.2,52-44.8h13.7c3,40.3-24.7,60.8-64.2,60.8ZM1329.3,420.5c17.9,0,29.2-5.7,37.2-12.9,7.6-7.2,11.4-16.3,14.1-23.2,8.4-22.8,8.7-40.3-6.5-40.3-25.1,0-19,25.1-44.8,76.3Z"/>
        <path class="st6" d="M1583.4,333.1h9.5c10.6,25.4,17.9,50.9,17.9,69.9,0,63.8-62.7,74.8-62.7,98s2.3,9.1,4.9,11.8l-6.5,3.4c-11.8-5.7-20.9-13.7-19.8-35.3-15.6,26.2-35.3,34.6-58.5,34.6-37.2,0-52.4-28.5-52.4-53.2,0-59.3,82.4-89.3,82.4-113.6s-2.7-9.1-4.9-11.8l6.5-3.4c13.7,5.7,20.9,17.9,20.9,35.3,0,60.4-61.2,80.9-61.2,112.4s4.6,17.1,18.2,17.1c29.6,0,51.3-36.8,71-83.6l34.6-81.7Z"/>
        <path class="st6" d="M1640.4,511.6h-9.5c-13.3-27.7-18.2-49.8-18.2-67.6,0-61.2,59.6-72.5,59.6-95.3s-1.9-8.7-4.6-11.8l6.5-3.4c12.2,6.5,20.1,16,17.5,43.7,16.7-26.2,37.2-44.1,63.1-44.1s32.7,11.8,32.7,29.6c0,39.1-35.3,42.5-35.3,57s1.5,5.7,2.7,7.2l-1.5,4.2c-16.3,0-38.7-2.7-38.7-25.1s19.4-35.7,35.3-41c5.7-1.9,8.7-4.6,8.7-8.7s-2.7-7.6-9.9-7.6c-25.8,0-58.1,46.3-84.3,107.1l-23.9,55.8Z"/>
      </g>
      <g class="st5">
        <path class="st0" d="M1497.3,131.5c-23.1,0-41.9,18.8-41.9,41.9s18.8,41.9,41.9,41.9,41.9-18.8,41.9-41.9-18.8-41.9-41.9-41.9Z"/>
      </g>
      <path class="st6" d="M1615.9,131.5c-23.1,0-41.9,18.8-41.9,41.9s18.8,41.9,41.9,41.9,41.9-18.8,41.9-41.9-18.8-41.9-41.9-41.9Z"/>
      <path class="st2" d="M1734.4,131.5c-23.1,0-41.9,18.8-41.9,41.9s18.8,41.9,41.9,41.9,41.9-18.8,41.9-41.9-18.8-41.9-41.9-41.9Z"/>
      <path class="st1" d="M364.8,175.5C364.5,78.6,285.8,0,188.8,0,91.6,0,13.2,66.9,12.9,163.7c-.7,9.2-4.7,92.5,88.6,140.9,69.2,35.9,48.2,113.5,48.2,113.5-1.8,6.7.7,13.9,6.2,18,5.6,4.2,13.1,4.5,19.1.9,0,0,88.7-54.2,129.1-102.7,62.6-75.1,61-151.7,60.7-158.9h0Z"/>
      <path class="st6" d="M259.2,240.4c-62.6,75.1-61,151.7-60.7,158.9,0,7.4.5,14.6,1.4,21.7,29.3-19.7,77.4-54.4,104.2-86.6,62.6-75.1,61-151.7,60.7-158.9h0c0-7.4-.5-14.6-1.4-21.7-29.3,19.7-77.4,54.4-104.2,86.6Z"/>
      <g class="st5">
        <path class="st0" d="M51.8,311.1c-17.7-9.1-32.4-24-41-43-1.4-3.1-5.9-3-7,.2-11,31.1,2.3,66.3,32.4,81.9l33.5,17.4c18.6,9.6,34,25.6,42.3,46,.8,2,3.6,2,4.4,0,13.2-31.8,0-69-31.2-85.2l-33.5-17.4Z"/>
      </g>
      <g>
        <path class="st6" d="M465.2,437.1c-9.5,0-17.3,7.7-17.3,17.3s7.7,17.3,17.3,17.3,17.3-7.7,17.3-17.3-7.7-17.3-17.3-17.3Z"/>
        <path class="st6" d="M389.2,437.1c-9.5,0-17.3,7.7-17.3,17.3s7.7,17.3,17.3,17.3,17.3-7.7,17.3-17.3-7.7-17.3-17.3-17.3Z"/>
        <path class="st6" d="M87.9,138.1c-9.5,0-17.3,7.7-17.3,17.3s7.7,17.3,17.3,17.3,17.3-7.7,17.3-17.3-7.7-17.3-17.3-17.3Z"/>
        <path class="st6" d="M163.9,138.1c-9.5,0-17.3,7.7-17.3,17.3s7.7,17.3,17.3,17.3,17.3-7.7,17.3-17.3-7.7-17.3-17.3-17.3Z"/>
      </g>
      <path class="st3" d="M432.7,187.2c0,21.7,17.7,39.4,39.5,39.4,21.8,0,39.4-15,39.5-36.7.2-2.1,1.1-20.7-19.9-31.6-15.5-8.1-10.8-25.5-10.8-25.5.4-1.5-.1-3.1-1.4-4s-2.9-1-4.3-.2c0,0-19.9,12.2-29,23-14,16.9-13.7,34-13.6,35.6h0Z"/>
    </g>
  </g>
</svg>