<?xml version="1.0" encoding="UTF-8"?><svg id="Calque_1" xmlns="http://www.w3.org/2000/svg" viewBox="0 0 669.22 309.36"><defs><style>.cls-1{fill:#004a99;}.cls-2{fill:#fff;}.cls-3{fill:#9d9d9c;}.cls-4{fill:#8e9acd;}.cls-5{fill:#e42618;}.cls-6{fill:#e30a18;}.cls-7{fill:#253473;}.cls-8{fill:#1d1d1c;}</style></defs><path class="cls-8" d="m2.14,82.03h12.45c8.96,0,14.49,4.6,14.49,12.16,0,4.89-2.39,8.56-6.52,10.53l12.8,18.04h-9.89l-10.83-16.47h-4.25v16.47H2.14v-40.73Zm8.26,7.04v10.19h4.66c3.49,0,5.52-1.87,5.52-5.18,0-3.08-2.03-5.01-5.52-5.01h-4.66Z"/><path class="cls-8" d="m40.56,82.03h23.74v7.04h-15.48v9.43h13.15v7.04h-13.15v10.18h15.48v7.04h-23.74v-40.73Zm8.03-3.5l6.57-7.85h8.5l-7.57,7.85h-7.51Z"/><path class="cls-8" d="m73.98,82.03h13.44c8.96,0,14.43,4.6,14.43,12.16s-5.47,12.1-14.43,12.1h-5.18v16.47h-8.26v-40.73Zm8.26,7.04v10.19h5.52c3.5,0,5.59-1.87,5.59-5.18,0-3.08-2.09-5.01-5.59-5.01h-5.52Z"/><path class="cls-8" d="m132.76,82.03h8.26v24.78c0,10.71-6.28,17.11-16.53,17.11s-16.46-6.4-16.46-17.11v-24.78h8.26v25.48c0,5.47,3.08,8.67,8.26,8.67s8.2-3.2,8.2-8.67v-25.48Z"/><path class="cls-8" d="m151.35,82.03h11.58c8.5,0,13.62,4.19,13.62,11.05,0,3.25-1.51,6.11-4.3,8.03,4.3,1.92,6.69,5.41,6.69,9.66,0,7.45-5.76,11.99-15.13,11.99h-12.45v-40.73Zm8.26,7.04v8.9h3.49c3.14,0,4.95-1.57,4.95-4.48,0-2.73-1.81-4.42-4.95-4.42h-3.49Zm0,16.01v10.64h4.66c3.83,0,6.16-2.03,6.16-5.41s-2.33-5.24-6.16-5.24h-4.66Z"/><path class="cls-8" d="m187.45,82.03h8.26v33.22h15.48v7.51h-23.74v-40.73Z"/><path class="cls-8" d="m218.48,82.03h8.26v40.73h-8.26v-40.73Z"/><path class="cls-8" d="m280.92,125.61c.87,0,2.03-.12,2.91-.46v6.98c-1.34.53-2.5.76-4.31.76-4.53,0-8.73-1.86-12.74-5.35l-4.83-4.31c-1.75.47-3.61.7-5.58.7-12.86,0-21.65-9.89-21.65-21.53s8.78-21.53,21.65-21.53,21.59,9.89,21.59,21.53c0,6.81-3.03,13.04-8.04,17l2.45,2.32c3.14,2.86,5.93,3.9,8.56,3.9Zm-11.47-23.22c0-7.79-5.47-13.79-13.09-13.79s-13.16,5.99-13.16,13.79,5.47,13.79,13.16,13.79,13.09-5.99,13.09-13.79Z"/><path class="cls-8" d="m309.92,82.03h8.26v24.78c0,10.71-6.28,17.11-16.53,17.11s-16.46-6.4-16.46-17.11v-24.78h8.26v25.48c0,5.47,3.08,8.67,8.26,8.67s8.2-3.2,8.2-8.67v-25.48Z"/><path class="cls-8" d="m328.51,82.03h23.74v7.04h-15.48v9.43h13.15v7.04h-13.15v10.18h15.48v7.04h-23.74v-40.73Z"/><path class="cls-8" d="m2.14,140.95h23.74v7.04h-15.48v9.43h13.15v7.04h-13.15v17.22H2.14v-40.73Z"/><path class="cls-8" d="m33.17,140.95h12.45c8.96,0,14.49,4.6,14.49,12.16,0,4.89-2.39,8.56-6.52,10.53l12.8,18.04h-9.89l-10.83-16.47h-4.25v16.47h-8.26v-40.73Zm8.26,7.04v10.19h4.66c3.49,0,5.52-1.87,5.52-5.18,0-3.08-2.03-5.01-5.52-5.01h-4.66Z"/><path class="cls-8" d="m83.58,140.95h10.83l15.42,40.73h-8.78l-3.9-10.59h-16.29l-3.9,10.59h-8.78l15.42-40.73Zm11,23.1l-5.58-15.31-5.59,15.31h11.17Z"/><path class="cls-8" d="m116.19,140.95h10.59l18.21,29.15v-29.15h8.26v40.73h-10.59l-18.21-29.27v29.27h-8.26v-40.73Z"/><path class="cls-8" d="m193.54,169.52l6.52,5.01c-3.14,4.3-8.04,7.33-13.97,8.09l-5.06,8.43h-7.33l5.12-8.55c-10.59-1.87-17.57-10.83-17.57-21.18,0-11.63,8.78-21.53,21.65-21.53,7.39,0,13.44,3.32,17.17,8.26l-6.52,5.06c-2.33-3.31-5.99-5.58-10.64-5.58-7.68,0-13.16,5.99-13.16,13.79s5.47,13.79,13.16,13.79c4.65,0,8.31-2.27,10.64-5.59Z"/><path class="cls-8" d="m217.31,140.95h10.83l15.42,40.73h-8.78l-3.9-10.59h-16.29l-3.9,10.59h-8.78l15.42-40.73Zm11,23.1l-5.58-15.31-5.59,15.31h11.17Z"/><path class="cls-8" d="m249.91,140.95h8.26v40.73h-8.26v-40.73Z"/><path class="cls-8" d="m271.98,170.51c2.45,3.14,5.7,5,9.02,5s5.24-1.74,5.24-4.71c0-7.28-18.62-5.65-18.62-19.21,0-6.46,5.3-11.81,13.03-11.81,6.11,0,10.83,2.74,14.26,6.87l-6.05,5.41c-2.39-3.08-5.06-5.06-8.15-5.06-2.85,0-4.72,1.86-4.72,4.25,0,7.27,18.62,5.58,18.62,19.38-.11,7.57-6.05,12.22-13.49,12.22-6.87,0-11.52-2.5-15.13-6.8l5.99-5.53Z"/><path class="cls-8" d="m303.36,140.95h23.74v7.04h-15.48v9.43h13.15v7.04h-13.15v10.18h15.48v7.04h-23.74v-40.73Z"/><path class="cls-7" d="m50.6,47.82l.04-.02c.15-.07.28-.16.41-.26-.02,0-.03,0-.04-.02-.14.1-.27.2-.41.3"/><path class="cls-7" d="m70.59,41.16s-.09.07-.14.1c.08,0,.14-.02.14-.1"/><path class="cls-7" d="m64.28,48.12c.59-.59,1.18-1.21,1.77-1.84h-.02c1.09-1.24,2.17-2.42,3.44-3.51.39-.35.77-.65,1.12-.89.11-.11.11-.31.21-.41-.52.21-.83.62-1.34.83-.11,0-.21-.11-.11-.21.37-.28.74-.55,1.11-.83-.02,0-.05,0-.07,0-.11,0-.11-.11-.11-.2-1.34-.22-2.37.71-3.29,1.54-.2.1-.41-.11-.52-.11-1.55.52-2.69,1.86-4.23,2.47v-.2c-.62.2-1.22.58-1.86.72-.93.2-1.74.1-2.58.1-1.25.13-2.5.41-3.75.67-.04,0-.07.01-.11.03-.66.18-1.29.44-1.91.77-.03.01-.05.02-.08.04-.05.06-.11.13-.15.18-.22.24-.41.46-.7.62-.64.32-1.16.88-1.72,1.34-.04.04-.11.04-.17.04-.56.54-1.1,1.08-1.66,1.59-.04.04-.2.06-.32.04t.02,0s.04-.06.06-.1c.08-.15.17-.29.26-.44.09-.16.2-.32.3-.47.14-.22.29-.43.44-.63.04-.05.03-.1,0-.14-.03-.04-.08-.05-.14-.05.51-.5,1.12-.93,1.73-1.29v-.02c-.07.03-.17-.03-.11-.1.06-.09.11-.19.17-.28,0-.03.02-.06.03-.09-.02-.03-.05-.06-.08-.09-.17.11-.35.21-.48.35-.25.22-.44.68-.82.67-.02,0-.09,0-.15-.02-.05,0-.09-.02-.11-.04,0,0,0-.02.02-.02,0,0,0-.02.01-.03,0,0,0-.02.02-.03.02-.03.03-.05.05-.08l.04-.09s.03-.05.04-.08c.02-.04.05-.08.07-.12.02-.04.04-.07.05-.1.04-.08.09-.16.13-.23l.07-.11c.04-.06.07-.13.11-.19.05-.08,0-.16-.08-.19.19-.24.42-.44.7-.61h-.03c.4-.2.8-.44,1.19-.66.05-.05.11-.11.17-.14-.59.19-1.12.46-1.65.8,0,0-.13.05-.17.1,0,0-.13.04-.26-.1-.02-.02-.03-.05-.03-.08.1-.2.41-.31.62-.51.1,0,.2,0,.2.11,3.31-2.58,7.84-1.96,11.66-3.3l.93-.62c.51-.2.93-.72,1.54-1.04.83-.62,1.44-1.33,1.75-2.36,0-.11-.1-.2-.1-.2-1.34,1.44-2.89,2.56-4.54,3.4-2.16,1.13-4.53.93-6.8,1.23.11-.21.31-.21.51-.21,0-.31.21-.41.41-.62h.31c.11,0,.11-.2.21-.2.21,0,.52-.11.41-.11-.31-.41-.93.31-1.44,0,.2-.2.1-.51.31-.62h.41c0-.21.21-.41.21-.41,1.55-.93,2.99-1.65,4.44-2.47-.31,0-.52.31-.83.1.21,0,0-.32.21-.32,1.13-.31,2.06-.93,3.19-1.33-.41,0-.71.31-1.13,0,.2-.11.31-.31.62-.31v-.31c0-.11.11-.11.2-.11-.1,0-.2-.11-.2-.11.11-.2.41-.1.62-.31-.11,0-.31,0-.31-.1.31-.42.82-.53,1.34-.62-.11-.21-.41,0-.41-.21,0-.11.11-.11.2-.11h-.2c-.2-.1-.11-.31-.11-.41.62-.72.62-1.65.93-2.47-.1,0-.2,0-.2-.11-1.03,1.14-2.68,1.55-4.22,1.96h-.52c-.51.2-1.24.2-1.75-.11-.41-.2-.62-.51-1.03-.82-.83-.53-1.65-.93-2.58-1.24-2.57-.83-5.26-1.23-7.94-1.14,1.13-.62,2.38-.68,3.6-1.03,1.76-.52,3.41-1.14,5.26-1.03-.31-.11-.71,0-1.02,0-1.45-.11-2.89.31-4.44.62-1.03.2-1.96.62-2.99.82-.62.22-.93.84-1.64.73v-.31c1.02-1.24,2.26-2.47,3.91-2.58,1.86-.31,3.61,0,5.47.21,1.33.1,2.57.41,3.91.71.52,0,.62.83,1.04.93.62.21,1.23,0,1.85.42,0-.21-.11-.42,0-.62.41-.41.93.11,1.35-.11.82-.51-.72-1.44-1.14-2.16,0-.11.11-.21.11-.21.83.73,1.44,1.55,2.47,2.06.51.21,1.75.52,1.55-.1-.51-1.14-1.55-2.07-2.37-3.1v-.41c-.21,0-.21-.11-.31-.21v-.41c-.41-.21-.31-.62-.52-.93-.31-.52-.1-1.23-.31-1.85-.2-.62-.31-1.14-.41-1.76-.31-1.75-.72-3.29-.93-4.95-.21-1.96,1.14-3.51,2.06-5.26.72-1.23,1.54-2.47,2.89-3.3.31-1.23,1.13-2.26,1.96-3.29.82-1.01,2.19-1.62,3.17-2.07C71.71.4,73.01,0,73.01,0H1.78v54.56h50.58c1.96-1.41,3.92-2.09,6.66-3.44,1.29-.63,4.26-2,5.26-3m-15.86-7.39c-.2,0-.62.1-.51-.11.1-.51.82-.51,1.23-.72.2-.1.51-.31.72-.2.21.31.52.2.72.41-.62.62-1.44.31-2.17.62m-15.78-2.26s-.1-.11-.1-.2c1.34-1.76,2.37-3.41,3.29-5.27,1.35-.72,2.46-1.78,3.51-2.88,1.74-1.86,3.61-3.51,5.78-4.54.82-.31,1.86-.2,2.68.11-.31.41-.82.31-1.24.62-.11,0-.2,0-.31-.11.11-.11.11-.2.11-.31-1.03,1.14-2.47,1.65-3.3,2.99-.62,1.03-1.03,2.37-2.37,2.68-.41.11.1-.31-.11-.2-3.2,1.96-5.46,4.33-7.94,7.12m8.56-6.81c-.11.2-.21.23-.31.41-.11.21-.2.31-.41.42-.1,0-.2,0-.2-.11.11-.41.41-.82.82-.93.11,0,.11.11.11.21m4.79,15.44c-.04.12-.15.22-.25.3.12.03.22.09.13.17-.23.22-.46.44-.77.54-.02,0-.09.02-.17.02-.12.13-.25.24-.38.36-.12.11-.68.03-.51-.13.26-.23.5-.47.76-.71.14-.14.3-.26.43-.41.08-.08.14-.17.23-.23.08-.06.63-.11.54.09m-1.84-.85s-.02.02-.03.02c-.38.27-.77.54-1.17.79-.44.25-.91.44-1.36.66,0-.02,0-.02-.02-.02-.04-.05-.11-.08-.17-.05-.39.21-.72.49-1.04.79l-.14.14s0,0-.02,0c0,0,0,0,0,0-.05.04-.09.09-.14.14,0,0,0,.02-.01.02t0,.01c-.08.08-.15.15-.22.23-.05.07-.08.11-.14.15-.07.04-.24.04-.23-.08v-.02c-.06.03-.12.07-.19.1-.05.02-.1.05-.15.09-.03-.02-.05-.02-.08-.02-.03,0-.05,0-.08.03-.12.09-.25.2-.38.31-.21.2-.41.41-.59.63,0,0,0,0-.02,0,0,.02,0,.02-.02.03,0,.02-.01.03-.03.05,0,0-.02.02-.03.04t0,.01s-.05.07-.08.11c0,0,0,0,0,0-.02.02-.05.03-.08.04-.01-.02-.03-.04-.04-.06,0-.01-.02-.04-.03-.05-.02-.05-.05-.11-.08-.17h0s-.01-.04-.02-.05c.11-.12.22-.25.32-.38l.02-.02s.07-.09.1-.14l.18-.22s.04-.05.06-.08c.11-.14.22-.29.32-.43t0-.02l.04-.07c.05-.08.1-.15.15-.22.04-.07.07-.14.11-.21,0,0,0,0,0-.02,0,0,0-.02,0-.02,0-.02.02-.02.02-.03.03-.08.06-.17.09-.25,0,0,0-.01,0-.03,0-.02.02-.04.03-.06,0-.04.02-.08.03-.11,0,0,0-.02,0-.03,0-.04.02-.1.04-.14,0-.03,0-.05-.02-.08.11-.2.25-.38.41-.55-.02,0-.04,0-.05.02-.15.1-.24.23-.38.33-.11.09-.32-.04-.18-.15.08-.07.15-.14.23-.21l.02-.02c.17-.17.33-.38.53-.53.12-.08.22-.16.32-.24l.04-.05c.08-.1.14-.17.23-.26v-.02c1-.95,2.66-.91,3.97-1.51.51-.2,1.13.11,1.64,0,.31,0,.62,0,.93.2-.93.51-1.77,1.08-2.62,1.6m2.11-7.17c-.11-.11.31,0,.41-.2h-.83c-.1,0-.1-.11-.1-.21-.52.11-1.14.31-1.65.41-.73.2-1.35.72-2.17.93-1.14.41-2.07,1.35-3.3,1.75-.11,0-.11-.1-.11-.2.11-.31.52-.41.72-.73,0-.1,0-.2-.1-.2.82-1.13,1.95-1.74,2.99-2.68v-.31c.31-.41.83-.62,1.03-1.14.11-.31.51-.71,1.04-.93-.11-.1-.32-.1-.32-.32-.41,0-.83.22-1.23-.1.19-.2.41-.3.64-.36-.08-.02-.17-.07-.23-.16-.1-.2.2-.43.52-.51.41-.11.93-.11,1.24-.41-.72-.11-1.55.2-2.27-.2.51-1.35,1.34-2.47,2.58-3.09.1,0,.31,0,.31.1,0,.52-.31.93-.83,1.03.83.2,1.65.2,2.47.62-.1.2-.32.11-.41.11.52.32,1.14.1,1.65.52-.31.31-.62,0-.93,0,3.2.93,6.6,1.65,9.28,3.71-2.27,1.14-4.64,1.65-7.12,2.17-.31,0-.51,0-.82-.1,0,.1,0,.31-.11.31-.41,0-.71,0-1.02.2-.41.2-1.04.31-1.35,0"/><path class="cls-6" d="m152.29,0h-58.7s.12.01.56.26c.47.26,1.09.59,1.48.79.75.39,1.49.9,1.96,1.65.21.31.52.93.32,1.34-.21.52-.32,1.35-.84,1.55-.62.31-1.44.31-2.16.21-.42,0-.83-.11-1.24-.21,1.55.62,2.99,1.34,4.02,2.78.11.21.52.31.93.31.11,0,.11.21.11.31-.2.21-.41.31-.31.62h.31c.51-.2.41-1.23,1.13-.93.53.31.73,1.03.41,1.55-.41.41-.82.72-1.23,1.03-.11.2-.11.51,0,.72.31.41.41.82.51,1.24.31.72.41,1.54.72,2.26.42,1.55.83,3.09.73,4.64,0,.82-.41,1.55-.11,2.37.2.83.72,1.45,1.13,2.17.41.62.83,1.03,1.14,1.65.62,1.04,1.75,2.06,1.23,3.3-.31.72-1.45.62-2.17,1.03-.62.52-.11,1.34.2,1.86.51.93-.62,1.54-1.34,1.85.21.31.62.21.72.41.11.51.62.83.31,1.35-.41.62-1.65.93-1.03,1.85.41.73.15,1.53-.1,2.27-.31.93-1.14,1.34-1.86,1.55-.62.2-1.34.2-1.96.1-.21-.1-.41-.2-.62-.2-1.75-.2-3.51-.73-5.26-.73-.52.11-1.03.22-1.44.42-.47.34-.88.71-1.25,1.11h-.01c-.08.09-.14.17-.22.26-.05.04-.1.1-.14.15l-.08.11c-.3.38-.58.77-.82,1.18-.02.03-.03.06-.05.08-.03.05-.04.09-.08.14-.34.62-.59,1.26-.78,1.89-.71,2.37-.4,4.39.1,4.89.14.13,3.4,1.14,5.68,2.15,1.06.47,1.81.84,2.43,1.23h57.64V0Z"/><path class="cls-3" d="m97.09,19.91c.41.11,1.03.11,1.03.31-.21.82-1.45,1.03-2.07,1.86h-.31c-.31.2-.2.72-.51.72-.31-.11-.62,0-.93.1.41.41.93.72,1.54.62.11,0,.31.21.31.41,0,0,.11,0,.2-.1.11,0,.22,0,.22.1v.41c-.32.42-.83.2-1.24.31.82.21,1.65.21,2.37,0,.62-.2,0-1.23.41-1.75-.21,0,0-.31-.21-.31.21-.2.41-.51.62-.62.21,0,.52-.11.62-.32,0-.2-.41-.31-.31-.51.62-.41,1.14-1.03.93-1.65-.1-.32-.93-.32-1.44-.52-.51-.2-1.13,0-1.74.11-.53,0-1.04.31-1.55.41-.72.21-1.35.62-1.96,1.03.72-.31,1.44-.41,2.27-.62.62,0,1.14-.16,1.75,0"/><path class="cls-8" d="m133.77,295.19c1.11,0,2.08.85,1.56,2.99l-5.18,1.2c.9-2.41,2.41-4.2,3.62-4.2m2.86,8.36h-1.02c-1.29,1.53-2.68,2.74-4.07,2.74s-2.14-.84-2.14-2.74c0-.79.09-1.56.24-2.29l8.35-2.74c1.62-3.86-.33-5.55-2.62-5.55-3.94,0-8.43,6.6-8.43,12.39,0,2.59,1.23,4.01,3.16,4.01,2.26,0,4.61-2.2,6.54-5.81m-1.65-12.12l5.87-5.48v-.63h-3.16l-3.62,6.11h.9Zm-18.01,3.86h2.77l-4.4,12.03c-.39,1.02.15,2.05,1.2,2.05,2.5,0,6.54-2.47,7.96-5.84h-.78c-1.11,1.17-3.25,2.74-5.1,3.07l4.05-11.3h4.12l.52-1.72h-4.01l1.53-4.34h-1.59l-2.87,4.34-3.4.49v1.23Zm-3.74-.57c.33-1.12-.42-1.75-.99-1.75-2.41,0-5.27,2.17-6.42,5.22h.78c.78-1.12,2.11-2.35,3.35-2.56l-4.61,12c-.42,1.11.42,1.75.99,1.75,2.29,0,4.97-2.2,6.11-5.21h-.77c-.79,1.11-2.12,2.35-3.35,2.56l4.92-12Zm.84-6.03c1.08,0,1.99-.87,1.99-1.99s-.91-1.99-1.99-1.99-1.99.9-1.99,1.99.88,1.99,1.99,1.99m-26.54,18.44c-.6,1.36.03,2.23,1.35,2.23.82,0,1.18-.21,1.51-1.08l3.19-8.47c1.48-1.81,4.53-3.74,5.73-3.74.87,0,.75.72.18,1.81l-4.91,9.43c-.48.93.15,2.05,1.2,2.05,2.41,0,5.27-2.17,6.42-5.21h-.78c-.78,1.11-2.11,2.35-3.35,2.56l4.23-8.53c.54-1.09.81-2.11.81-2.93,0-1.38-.79-2.29-2.23-2.29-2.08,0-4.19,2.35-6.69,5.25v-2.23c0-1.59-.51-3.02-1.95-3.02-.91,0-1.78.79-2.59,1.9v.3c1.56-.08,2.26,2.26,1.14,4.73l-3.25,7.24Zm-.07-10.49c.57-1.96.27-3.68-1.23-3.68-1.78,0-2.23,1.36-4.03,5.25v-2.23c0-1.59-.52-3.02-1.96-3.02-1.69,0-3.23,2.62-4.4,5.22h.78c.81-1.17,1.56-1.87,2.17-1.87.71,0,1.11,1.11,0,3.58l-3.26,7.24c-.6,1.36.03,2.23,1.36,2.23.8,0,1.17-.21,1.5-1.08l3.2-8.47c.9-1.12,1.71-2.08,2.74-3.17h3.13Zm-18.5-1.45c1.11,0,2.08.85,1.56,2.99l-5.19,1.2c.91-2.41,2.41-4.2,3.63-4.2m2.86,8.36h-1.02c-1.3,1.53-2.68,2.74-4.07,2.74s-2.14-.84-2.14-2.74c0-.79.09-1.56.23-2.29l8.35-2.74c1.62-3.86-.33-5.55-2.62-5.55-3.95,0-8.44,6.6-8.44,12.39,0,2.59,1.23,4.01,3.17,4.01,2.26,0,4.61-2.2,6.54-5.81m-19.68-8.26h2.78l-4.4,12.03c-.39,1.02.14,2.05,1.2,2.05,2.5,0,6.54-2.47,7.96-5.84h-.79c-1.11,1.17-3.26,2.74-5.09,3.07l4.04-11.3h4.13l.52-1.72h-4.02l1.53-4.34h-1.59l-2.87,4.34-3.41.49v1.23Zm-15.22,9.37c0-3.71,4.13-8.74,6.45-8.74.5,0,.99.06,1.41.18l-2.41,6.42c-1.39,1.69-3.53,3.74-4.52,3.74-.57,0-.93-.47-.93-1.59m12.69-12.38l-1.27-.1-1.41,1.38h-.3c-6.87,0-12.81,7.72-12.81,13.32,0,1.57.96,2.47,2.47,2.47,1.78,0,3.54-2.53,5.49-5.24l-.09.96c-.24,2.78.6,4.28,2.05,4.28,1.69,0,3.23-2.62,4.4-5.21h-.78c-.82,1.17-1.56,1.87-2.17,1.87-.63,0-1.09-1.15,0-3.59l4.43-10.15Zm-14.65,4.36c.58-1.96.27-3.68-1.23-3.68-1.78,0-2.23,1.36-4.04,5.25v-2.23c0-1.59-.51-3.02-1.96-3.02-1.68,0-3.22,2.62-4.39,5.22h.78c.81-1.17,1.56-1.87,2.17-1.87.72,0,1.11,1.11,0,3.58l-3.26,7.24c-.6,1.36.04,2.23,1.36,2.23.82,0,1.17-.21,1.5-1.08l3.2-8.47c.9-1.12,1.72-2.08,2.74-3.17h3.14Zm-23.08,12.12l.3-.94c-4.01-.75-4.53-.75-2.93-5.12l1.62-4.48h4.43c1.99,0,2.02.81,1.72,2.98h1.14l2.65-7.27h-1.14c-.99,1.72-1.78,2.99-3.94,2.99h-4.37l2.32-6.36c.72-2.02,1.15-2.44,3.86-2.44h1.93c2.81,0,3.14.75,3.14,3.59h1.11l.93-4.94H8.01l-.3.93c3.23.66,3.53.96,2.02,5.12l-3.62,9.88c-1.5,4.13-2.14,4.46-5.84,5.12l-.27.94h11.88Z"/><path class="cls-8" d="m93.42,257.53c1.11,0,2.08.85,1.56,2.99l-5.19,1.2c.91-2.41,2.42-4.2,3.63-4.2m2.86,8.36h-1.02c-1.29,1.53-2.68,2.74-4.07,2.74s-2.14-.84-2.14-2.74c0-.79.09-1.56.24-2.29l8.34-2.74c1.63-3.86-.33-5.55-2.62-5.55-3.95,0-8.44,6.6-8.44,12.39,0,2.59,1.24,4.01,3.17,4.01,2.26,0,4.61-2.2,6.54-5.81m-1.65-12.12l5.87-5.48v-.63h-3.17l-3.61,6.11h.9Zm-18.02,3.86h2.78l-4.4,12.03c-.39,1.02.15,2.05,1.2,2.05,2.5,0,6.54-2.47,7.95-5.84h-.78c-1.11,1.17-3.26,2.74-5.09,3.07l4.04-11.3h4.13l.52-1.71h-4.02l1.53-4.35h-1.59l-2.87,4.35-3.41.48v1.23Zm-3.74-.57c.33-1.12-.42-1.75-.99-1.75-2.42,0-5.28,2.17-6.42,5.22h.78c.78-1.12,2.11-2.35,3.35-2.56l-4.61,12c-.42,1.11.41,1.74.99,1.74,2.29,0,4.98-2.2,6.12-5.21h-.78c-.78,1.11-2.11,2.35-3.35,2.56l4.91-12Zm.85-6.03c1.08,0,1.99-.87,1.99-1.99s-.91-1.99-1.99-1.99-1.99.9-1.99,1.99.87,1.99,1.99,1.99m-16.04,18.03l8.41-22.03-.27-.33-5.27.6v.63l1.02.78c.94.72.64,1.41-.2,3.65l-6.57,17.3c-.47.93.16,2.05,1.2,2.05,2.42,0,4.97-2.17,6.12-5.21h-.78c-.78,1.11-2.41,2.35-3.65,2.56m-15.97-2.05c0-3.71,4.13-8.74,6.45-8.74.52,0,.99.06,1.42.17l-2.42,6.42c-1.38,1.69-3.51,3.74-4.51,3.74-.57,0-.93-.48-.93-1.59m12.68-12.39l-1.26-.09-1.41,1.39h-.3c-6.87,0-12.81,7.71-12.81,13.31,0,1.56.97,2.47,2.47,2.47,1.78,0,3.53-2.53,5.48-5.24l-.08.96c-.25,2.77.6,4.28,2.05,4.28,1.69,0,3.23-2.62,4.4-5.21h-.78c-.81,1.17-1.56,1.87-2.17,1.87-.63,0-1.09-1.14,0-3.59l4.42-10.15Zm-30.67,20.01c0-1.59,1.53-2.59,3.74-3.46.72.36,1.81.75,3.26,1.23,2.29.75,3.16,1.06,3.16,1.75,0,1.48-2.5,2.59-5.9,2.59-2.86,0-4.25-.6-4.25-2.11m6.24-9.73c-.99,0-1.38-.83-1.38-1.81,0-2.69,1.44-6.63,3.71-6.63.99,0,1.39.84,1.39,1.81,0,2.69-1.45,6.63-3.72,6.63m6.54,8.26c0-1.93-1.72-2.62-4.51-3.46-2.41-.73-3.5-.93-3.5-1.72,0-.63.51-1.38,1.53-1.93,3.96-.2,6.51-3.77,6.51-6.75,0-.63-.11-1.17-.33-1.65h3.35l.5-1.71h-5.3c-.63-.39-1.38-.61-2.14-.61-4.19,0-6.9,3.68-6.9,6.66,0,2.26,1.44,3.68,3.2,4-1.96.88-3.05,1.9-3.05,3.11,0,.68.25,1.17.82,1.62-4.52,1.33-6.3,2.84-6.3,4.97s2.74,2.96,5.99,2.96c5.51,0,10.12-2.98,10.12-5.48m-21.05-12.89c1.98,0,2.02.8,1.72,2.98h1.14l2.65-7.27h-1.14c-1,1.72-1.78,2.99-3.96,2.99h-4.37l2.2-6.05c.72-2.02,1.15-2.41,3.86-2.41h1.93c2.81,0,3.14.75,3.14,3.57h1.11l.93-4.95H8.01l-.3.93c3.23.66,3.53.96,2.02,5.12l-3.62,9.88c-1.5,4.13-2.14,4.46-5.84,5.12l-.27.94h18.5l3.31-5.24h-1.26c-2.11,1.99-4.75,3.88-8.47,3.88-4.9,0-4.45-.21-2.83-4.7l1.75-4.78h4.43Zm2.41-12.63l5.87-4.04v-.63h-3.55l-3.26,4.67h.93Z"/><path class="cls-8" d="m91.46,219.86c1.11,0,2.08.84,1.56,2.99l-5.18,1.2c.9-2.42,2.41-4.2,3.62-4.2m2.86,8.35h-1.02c-1.29,1.54-2.69,2.75-4.07,2.75s-2.14-.85-2.14-2.75c0-.78.08-1.57.24-2.29l8.34-2.75c1.63-3.85-.33-5.54-2.62-5.54-3.94,0-8.43,6.6-8.43,12.39,0,2.59,1.23,4,3.17,4,2.26,0,4.61-2.2,6.54-5.81m-1.65-12.11l5.87-5.48v-.63h-3.17l-3.61,6.11h.9Zm-17.27,3.86h2.2l-4.4,12.02c-.39,1.02.14,2.05,1.2,2.05,2.5,0,6.54-2.47,7.96-5.84h-.79c-1.11,1.17-3.25,2.74-5.09,3.07l4.04-11.3h4.13l.52-1.72h-4.02l1.54-4.34h-1.59l-2.87,4.34-2.84.48v1.24Zm-2.17,1.35c.57-1.95.27-3.67-1.23-3.67-1.78,0-2.23,1.35-4.04,5.24v-2.23c0-1.59-.52-3.02-1.96-3.02-1.68,0-3.22,2.62-4.39,5.22h.77c.82-1.19,1.57-1.87,2.17-1.87.72,0,1.11,1.11,0,3.58l-3.26,7.24c-.6,1.35.04,2.23,1.35,2.23.82,0,1.18-.2,1.51-1.08l3.19-8.47c.91-1.11,1.72-2.08,2.75-3.17h3.14Zm-18.5-1.44c1.11,0,2.08.84,1.57,2.99l-5.19,1.2c.9-2.42,2.41-4.2,3.62-4.2m2.87,8.35h-1.03c-1.29,1.54-2.69,2.75-4.06,2.75s-2.14-.85-2.14-2.75c0-.78.09-1.57.24-2.29l8.34-2.75c1.63-3.85-.33-5.54-2.61-5.54-3.96,0-8.44,6.6-8.44,12.39,0,2.59,1.23,4,3.17,4,2.25,0,4.6-2.2,6.54-5.81m-20.47,3.38c-.8,0-1.99-.75-1.99-1.42,0-.2.36-1.14.81-2.32l1.35-3.59c1.45-1.71,3.65-3.56,4.89-3.56.74,0,1.32.49,1.32,1.6,0,3.29-3.08,9.28-6.39,9.28m9.5-10.61c0-2.44-.9-3.35-2.59-3.35-2.11,0-4.1,2.23-6.09,4.94l5.03-13.22-.27-.34-5.27.61v.63l1.03.77c.93.73.63,1.48-.22,3.66l-5.42,13.97c-.4,1.03-.88,2.23-.88,2.56,0,1.44,1.96,2.8,3.74,2.8,4.09,0,10.94-7.39,10.94-13.04m-16.4-1.59c.33-1.12-.42-1.75-.99-1.75-2.41,0-5.27,2.17-6.42,5.22h.77c.79-1.12,2.11-2.35,3.35-2.56l-4.61,11.99c-.42,1.11.43,1.74,1,1.74,2.29,0,4.96-2.2,6.11-5.2h-.77c-.79,1.11-2.11,2.35-3.35,2.56l4.91-11.99Zm.84-6.03c1.09,0,1.99-.87,1.99-1.99s-.9-1.98-1.99-1.98-1.99.9-1.99,1.98.87,1.99,1.99,1.99m-12.14-1.93H7.96l-.3.93c3.23.66,3.53.96,2.02,5.12l-3.56,9.88c-1.5,4.13-2.14,4.46-5.84,5.12l-.28.93h16.7l3.62-6.45h-1.26c-2.05,2.26-4.46,5.09-8.17,5.09-2.8,0-3.13-.48-1.62-4.7l3.56-9.88c1.47-4.13,2.14-4.46,5.84-5.12l.27-.93Z"/><path class="cls-1" d="m669.22,309.36h-262.43V0h262.43v309.36Z"/><rect class="cls-2" x="412.63" y="5.84" width="250.76" height="297.69"/><path class="cls-4" d="m486.47,173.84c11.13,16.81,30.22,27.91,51.89,27.91,34.35,0,62.2-27.85,62.2-62.2,0-3.35-.27-6.63-.77-9.84-2.89-18.21-13.69-33.79-28.77-43.11-9.49-5.87-20.67-9.25-32.65-9.25-10.57,0-20.53,2.63-29.24,7.29-7.33,3.92-13.79,9.25-19,15.65-7.27,8.93-12.12,19.91-13.53,31.94-.28,2.4-.43,4.84-.43,7.31,0,12.67,3.79,24.46,10.3,34.29"/><path class="cls-1" d="m518.21,119.32l3.31.53-1.14,2.18-2.84-1.57.67-1.14Zm13.33-7.26l-2.78,2.45v1.66l4.42,1.09,8.8-5.97-.24-2.44-3.49-1.21-6.72,4.42Zm1.37-6.55l-.8-.03-1.53,2.79-2.39.19-2.72,3.93,1.48.94,3.67-2.34,2.81-3-.52-2.48Zm4.96-7.72l-5.63,4.48,2,1.44,4.5-4.58-.87-1.35Zm-43.29,25l1.95.23.61-4.61v-1.38s-.33-1.41-.33-1.41l-1-.08-1.22,7.25Zm1.03,3.04l.62.97,1.18.18.53-2.39-1.94-.47-.39,1.71Zm1.13,2.35l.2,1.27h1.2s-.16-1.37-.16-1.37l-1.24.1Zm.68,2.72l.34.82,1.01-.45s-.28-.75-.31-.75l-1.05.38Zm.62,2.34s.87-.33.87-.33l-.34-.73s-.49.42-.48.47l-.05.59m41.32-3.62s-1.58,3.86-1.58,3.88c0,0,2.49.24,2.49.26l.59-3.18-.43-.32.29-1.09-1.25-.68-.4.82.29.31Zm-3.65,2.68l1.36.38.41-1.26-.96-.23-.8,1.11Zm29.2,48.93l-1.96,1.14-2.5.53-5.5,5.41.34,1.2.8-.11,3.14-1.35c.81-.35,3.39-1.79,4.73-3.24,1.26-1.37,1.64-1.9,2.37-3.29l-1.41-.29Zm-1.45,7.56s-.67-.74-.67-.74c0,.03-1.04.64-1.04.64,0,0,.79.79.76.79l.95-.68m-20.84-46.84l-.78-.1-.05,1.47.78.14.47-1.89-.24-.1-.17.47Zm-46.45-8.14l.28,1.18,1.12-.37-.37-1.19-1.02.38Zm-9.69,40.03l4.3-3.56,3.53.89,9.44-7.1.46-3.79-6.21-9.05c-.1-.14-.5-5.79-1.7-10.03-.63-2.21-2.08-8.65-2.14-8.78l-.82-1.64-5.9-8.86,3.83-9.58,3.05-.13.18-1.41-2.26-1.89-.07-.41-.07-1.8c0-1.22,2.07-2.45,3.45-2.45.37,0,.76.06,1.16.17.96.26,1.87,1.06,2.7,1.66.15.11,2.72,6.11,2.72,6.11l-2.18,1.75-1.07,2.63,1.49,1.17,2.08-3.59,8.6,2.89,5.28,3,1.6-1.75,4.43.37,3.24-4.41-2.93-1.11,3.07-3.7-.37-1.24-4.68-.91,3.59-3.76,3.41,2.22-.07,1,2.2.27,1.86-3.53-1.3-1.14,5.48-5.27,4.96-2.32,3.86-2.53.74-.59.16-2.71-.66-1.92-1.71-.66,2.19-1.72-.6-.32c-1.46.97-4.93,3.35-10.98,3.79-4.31.31-13.02-1.61-13.02-1.61l-8.64-1.29-3.02-.53c-7.34,3.91-13.79,9.24-19.01,15.64l-.26,8.16-1.3,3.73-3.09,10.8,1,3.04-4.91.7-4.95,5.51c-.28,2.4-.42,4.84-.42,7.31,0,12.67,3.79,24.46,10.3,34.29m84.54-87.22c15.07,9.32,25.87,24.89,28.77,43.11h0s-4.86,4.15-4.86,4.15l-3.11-.73-1.45,1.28.1.86c.05.39.22,1.2.52,2.41.62,2.48.93,4.95.93,7.36,0,2.24-.09,2.97-.59,5.14h-2.65s-7.44-6.02-7.44-6.02l-5.68,1.28-3.66-.62-4.64,1.42,2.1,1.81,3.64-1.03,3.15,2.52-.5,1.1-1.3,2.1-2.8,4-4.31,3.48-7.97-8.27-2.06.22,8.5,9.74,3.44-.69.86,1.76-3.47,5.68-6.75,6.44-3.03,7.69c-.07.2-.39.44-.88.68-.97.47-2.12,1.31-3.39,2.5-1.63,1.53-2.54,2.37-2.74,2.54-1.34,1.18-2.95,2.41-4.83,3.67-1.86,1.26-3.73,2.36-5.57,3.31-3.27,1.66-6.94,2.59-10.26,2.59-2.18,0-4.39-.37-6.54-1.1-.29-.1-.48-.25-.48-.38l1.47-4.16c.06-.2,1.31-1.61,3.66-4.17,1.06-1.16,1.93-2.73,2.53-4.61.89-2.76,1.52-4.47,1.89-5.07,1.35-2.18,1.99-4.04,1.54-4.49l-8.82-8.87-3.7-6.88.39-1.63c.28-1.13,1.17-3.12,2.89-6.4.93-1.78,1.69-2.71,2.54-3.13l5.9-2.91,11.45,1.73,3.49,2.33,1.64-.2,7,1.82,1.75-4.56-8.89-2.5-3.15-3.13-.44.11,1.47,3.72-1.78.35-.19-.44.62-.11s-.53-2.28-1.91-2.94c-.5-.23-.82-.45-1.33-.45-.68,0-1.79.41-2.37.95-1.94,1.79-3.46,3.02-3.6,2.91l-3.65-2.76,1.35-3.4.56.14c.33.08.68.12,1.04.12,1.14,0,1.85-.67,2-1.33.17-.82-.39-1.22-.39-1.22.02-.02-.35-.39-.35-.39,0,.04.53-.6.5-.6-.01,0,1.39.36,2.19.4.93.05,1.84-.16,2.22-.57l.88-1.39,1.49-.42.26-1.97.91.06s.51.71.72,1.66l2.57-.67.76-2.64-.41-.47,1.13-2.53-.98-.69-1.65,4.66-.91.12-.4-1.04-2.32.18-1.3-2.09,2.82-2.9,2.75-3.68,3.88,1.22.95,1.92,1.18-.03-.43-2.79,3.17-2.98-2.11-9.56,1.35-3,1.54.09.21-2.36-10.12-11.08.33-2.99,8.37-1.91,1.2.36,4.77-.46,1.1.5,7.68-.77h0Zm-.14,1.85l-9.74,2.07,6.72,3.87,2.26-2.64,2.75-1.76-2-1.54Z"/><path class="cls-5" d="m468.37,58.01l-1.61-5.18h-10.69l-1.71,5.18h-8.93l12.64-34.77h6.59l12.64,34.77h-8.93Zm-6.78-21.58l-3.12,9.28h6.05l-2.93-9.28Z"/><path class="cls-5" d="m509.28,54.59c-2.39,2.39-5.76,3.42-9.37,3.42h-12.88V23.24h12.88c3.61,0,6.98,1.02,9.37,3.42,4.05,4.05,3.61,8.5,3.61,13.97s.44,9.91-3.61,13.97Zm-5.86-21.78c-.78-1.17-1.95-1.95-4.1-1.95h-3.76v19.53h3.76c2.15,0,3.32-.78,4.1-1.95.68-.98.93-1.9.93-7.81s-.24-6.84-.93-7.81Z"/><path class="cls-5" d="m524.5,58.01V23.24h23.62v7.62h-15.08v5.81h12.89v7.62h-12.89v6.1h15.08v7.62h-23.62Z"/><path class="cls-5" d="m583.82,58.01v-16.65l-4.93,8.59h-5.47l-4.93-8.59v16.65h-8.54V23.24h8.4l7.81,15.33,7.81-15.33h8.39v34.77h-8.54Z"/><path class="cls-5" d="m605.03,58.01V23.24h23.62v7.62h-15.08v5.81h12.89v7.62h-12.89v6.1h15.08v7.62h-23.62Z"/><path class="cls-5" d="m452.36,221.3l-5.53,15.21h3.61l.77-2.32h5.06l.72,2.32h3.61l-5.53-15.21h-2.7Zm-.21,10.06l1.66-4.93,1.56,4.93h-3.22Z"/><path class="cls-5" d="m470.45,236.64c1.93,0,3.25-.51,4.4-1.7h0c1.11-1.13,1.52-2.5,1.52-5.06v-1.98h-5.74v2.83h2.3v.4c0,.74-.23,1.38-.65,1.79-.41.44-1.03.67-1.83.67-.7,0-1.3-.26-1.65-.73-.37-.48-.61-1.02-.61-3.96s.24-3.46.61-3.94c.36-.47.98-.75,1.65-.75,1.3,0,2.01.53,2.37,1.75h3.5c-.28-1.6-1.4-4.8-5.87-4.8-1.73,0-3.03.52-4.2,1.7-1.53,1.53-1.53,3.59-1.52,5.78v.52c0,2.19,0,4.25,1.52,5.78,1.16,1.16,2.49,1.7,4.2,1.7Z"/><polygon class="cls-5" points="485.7 230.37 491.47 230.37 491.47 227.32 485.7 227.32 485.7 224.35 492.46 224.35 492.46 221.3 482.23 221.3 482.23 236.51 492.46 236.51 492.46 233.47 485.7 233.47 485.7 230.37"/><polygon class="cls-5" points="510.18 236.51 510.18 221.3 506.71 221.3 506.71 229.58 501.44 221.3 498.38 221.3 498.38 236.51 501.84 236.51 501.84 228.24 507.11 236.51 510.18 236.51"/><path class="cls-5" d="m523.91,231.93c-.23.75-.71,1.66-2.13,1.66-.7,0-1.3-.26-1.66-.73-.37-.48-.63-1.05-.63-3.96s.26-3.48.63-3.96c.35-.46.96-.73,1.66-.73,1.41,0,1.9.91,2.13,1.66h3.54c-.58-3-2.64-4.71-5.69-4.71-1.71,0-3.05.54-4.2,1.7-1.53,1.53-1.52,3.59-1.52,5.78v.52c0,2.19,0,4.25,1.52,5.78,1.16,1.16,2.49,1.7,4.2,1.7,3.05,0,5.11-1.71,5.69-4.71h-3.54Z"/><polygon class="cls-5" points="536.17 230.37 541.95 230.37 541.95 227.32 536.17 227.32 536.17 224.35 542.93 224.35 542.93 221.3 532.7 221.3 532.7 236.51 542.93 236.51 542.93 233.47 536.17 233.47 536.17 230.37"/><path class="cls-5" d="m570.04,229.57c0-.22,0-.44,0-.66s0-.44,0-.66c.02-2.16.03-3.87-1.57-5.47-.97-.97-2.38-1.48-4.07-1.48h-5.59v15.21h5.59c1.7,0,3.1-.51,4.07-1.48,1.6-1.6,1.58-3.3,1.57-5.47Zm-3.91,2.95c-.43.65-1.07.95-1.99.95h-1.87v-9.12h1.87c.92,0,1.55.3,1.99.95.35.5.45,1.03.45,3.6,0,2.72-.12,3.13-.45,3.61Z"/><polygon class="cls-5" points="579.36 230.37 585.14 230.37 585.14 227.32 579.36 227.32 579.36 224.36 586.12 224.36 586.12 221.31 575.9 221.31 575.9 236.52 586.12 236.52 586.12 233.47 579.36 233.47 579.36 230.37"/><polygon class="cls-5" points="605.48 221.3 602.01 221.3 602.01 236.51 612.02 236.51 612.02 233.47 605.48 233.47 605.48 221.3"/><path class="cls-5" d="m625.53,236.51h3.61l-5.53-15.21h-2.7l-5.53,15.21h3.61l.76-2.32h5.06l.72,2.32Zm-4.83-5.15l1.66-4.93,1.56,4.93h-3.22Z"/><polygon class="cls-5" points="451.24 261.31 454.7 261.31 454.7 249.15 458.54 249.15 458.54 246.1 447.4 246.1 447.4 249.15 451.24 249.15 451.24 261.31"/><path class="cls-5" d="m476.28,254.83c.57-.29,2.44-1.41,2.44-3.91s-1.77-4.83-5.14-4.83h-6v15.21h3.47v-5.8h1.59l2.76,5.8h4.03l-3.32-6.4.17-.08Zm-2.88-2.15h-2.35v-3.51h2.35c1.2,0,1.85.9,1.85,1.76s-.65,1.76-1.85,1.76Z"/><path class="cls-5" d="m492.35,246.1l-5.54,15.21h3.62l.77-2.32h5.07l.72,2.32h3.61l-5.54-15.21h-2.7Zm-.21,10.06l1.66-4.93,1.56,4.93h-3.22Z"/><polygon class="cls-5" points="509.05 246.1 509.05 261.31 512.52 261.31 512.52 253.03 517.8 261.31 520.87 261.31 520.87 246.1 517.4 246.1 517.4 254.37 512.12 246.1 509.05 246.1"/><path class="cls-5" d="m536.86,252.2l-1.88-.26c-.5-.06-.9-.23-1.18-.51-.32-.32-.36-.7-.36-.85,0-.78.65-1.63,2.07-1.63h.12c.68,0,1.87,0,2.83.85l2.16-2.15c-1.23-1.16-2.78-1.68-5-1.68-3.3,0-5.51,1.9-5.51,4.74,0,1.29.34,2.3,1.02,3,.67.69,1.69,1.13,3.03,1.32l1.88.26c.51.07.89.22,1.13.47.24.27.36.61.36,1.05,0,.72-.42,1.58-2.42,1.58-.71,0-2.42-.1-3.48-1.02l-2.2,2.2c1.35,1.31,3.05,1.87,5.66,1.87,2.91,0,5.84-1.46,5.84-4.72,0-1.48-.36-2.56-1.11-3.28-.64-.64-1.64-1.05-2.97-1.24Z"/><rect class="cls-5" x="550.26" y="246.1" width="3.47" height="15.21"/><polygon class="cls-5" points="566.61 261.31 570.08 261.31 570.08 249.15 573.91 249.15 573.91 246.1 562.77 246.1 562.77 249.15 566.61 249.15 566.61 261.31"/><rect class="cls-5" x="582.95" y="246.1" width="3.47" height="15.21"/><path class="cls-5" d="m607.39,253.44c0-2.19,0-4.25-1.52-5.78-1.18-1.17-2.48-1.7-4.23-1.7s-3.06.52-4.23,1.7c-1.53,1.53-1.53,3.59-1.52,5.78v.52c0,2.19,0,4.25,1.52,5.78,1.18,1.17,2.48,1.7,4.23,1.7s3.06-.52,4.23-1.7c1.53-1.53,1.53-3.59,1.52-5.78v-.52Zm-4.08,4.18c-.29.37-.88.77-1.68.77s-1.39-.4-1.68-.77c-.38-.5-.61-1.01-.61-3.92s.24-3.46.61-3.94c.36-.47.99-.75,1.68-.75s1.32.28,1.68.75c.37.48.61,1.02.61,3.94s-.23,3.42-.61,3.92Z"/><polygon class="cls-5" points="628.66 261.31 628.66 246.1 625.19 246.1 625.19 254.37 619.91 246.1 616.84 246.1 616.84 261.31 620.31 261.31 620.31 253.03 625.59 261.31 628.66 261.31"/><polygon class="cls-5" points="450.89 279.97 456.69 279.97 456.69 276.91 450.89 276.91 450.89 273.93 457.68 273.93 457.68 270.87 447.42 270.87 447.42 286.14 457.68 286.14 457.68 283.08 450.89 283.08 450.89 279.97"/><polygon class="cls-5" points="452.35 265.39 451.38 268.97 453.22 268.97 455.57 265.39 452.35 265.39"/><path class="cls-5" d="m474.2,275.47h3.55c-.58-3.01-2.65-4.73-5.71-4.73-1.72,0-3.06.54-4.22,1.7-1.53,1.53-1.53,3.61-1.53,5.8v.52c0,2.19,0,4.27,1.53,5.8,1.16,1.16,2.5,1.7,4.22,1.7,3.06,0,5.13-1.72,5.71-4.73h-3.55c-.23.75-.72,1.67-2.13,1.67-.7,0-1.3-.27-1.66-.73-.37-.48-.63-1.05-.63-3.98s.26-3.49.63-3.97c.36-.46.96-.73,1.66-.73,1.42,0,1.91.91,2.13,1.67Z"/><path class="cls-5" d="m491.47,270.74c-1.75,0-3.06.53-4.24,1.7-1.53,1.53-1.53,3.61-1.53,5.8v.52c0,2.19,0,4.27,1.53,5.8,1.18,1.18,2.49,1.7,4.24,1.7s3.06-.53,4.24-1.7h0c1.53-1.53,1.53-3.6,1.53-5.8v-.53c0-2.19,0-4.27-1.53-5.8-1.18-1.18-2.49-1.7-4.24-1.7Zm1.68,11.7c-.37.48-1,.77-1.68.77s-1.31-.29-1.68-.77c-.38-.5-.61-1.01-.61-3.93s.23-3.46.61-3.95c.36-.47.99-.75,1.68-.75s1.32.28,1.68.75c.38.5.61,1.01.61,3.95s-.23,3.44-.61,3.93Z"/><polygon class="cls-5" points="509.77 270.87 506.3 270.87 506.3 286.14 516.34 286.14 516.34 283.08 509.77 283.08 509.77 270.87"/><path class="cls-5" d="m529.67,270.74c-1.76,0-3.06.53-4.24,1.7-1.53,1.53-1.53,3.61-1.53,5.8v.52c0,2.19,0,4.27,1.53,5.8,1.18,1.18,2.48,1.7,4.24,1.7s3.06-.53,4.24-1.7h0c1.53-1.53,1.53-3.61,1.53-5.8v-.52c0-2.19,0-4.27-1.53-5.8-1.18-1.18-2.49-1.7-4.24-1.7Zm1.68,11.7c-.37.48-1,.77-1.68.77-.8,0-1.4-.4-1.68-.77-.38-.5-.61-1.01-.61-3.93s.24-3.47.61-3.95c.36-.47.99-.75,1.68-.75s1.32.28,1.68.75c.38.5.61,1.01.61,3.95s-.23,3.44-.61,3.93Z"/><path class="cls-5" d="m552.12,275.56h3.51c-.28-1.6-1.41-4.82-5.89-4.82-1.74,0-3.04.53-4.22,1.7-1.53,1.53-1.53,3.61-1.53,5.8v.52c0,2.19,0,4.27,1.53,5.8,1.16,1.16,2.5,1.7,4.22,1.7,1.94,0,3.26-.51,4.41-1.7h0c1.11-1.13,1.53-2.51,1.53-5.08v-1.99h-5.76v2.84h2.3v.4c0,.74-.23,1.38-.65,1.8-.42.44-1.04.67-1.84.67-.7,0-1.3-.27-1.66-.73-.37-.48-.61-1.02-.61-3.98s.24-3.47.61-3.95c.37-.48.97-.75,1.66-.75,1.3,0,2.02.53,2.38,1.76Z"/><rect class="cls-5" x="564.74" y="270.87" width="3.48" height="15.27"/><path class="cls-5" d="m587.94,283.74c.88-1.4.87-3.14.87-4.99v-.51c0-2.19,0-4.27-1.53-5.8-1.18-1.18-2.49-1.7-4.24-1.7s-3.06.53-4.24,1.7c-1.53,1.53-1.53,3.61-1.53,5.8v.52c0,2.19,0,4.27,1.53,5.8,1.18,1.18,2.49,1.7,4.24,1.7,1.16,0,2.13-.23,2.94-.7l.12-.07,1.18,1.18,1.7-1.7-1.11-1.12.08-.12Zm-2.69-2.92l-.03.39-.89-.9-1.7,1.7,1.1,1.1-.34.07c-.13.02-.23.02-.34.02-.8,0-1.4-.4-1.68-.77-.38-.5-.61-1.01-.61-3.93s.24-3.47.61-3.95c.36-.47.99-.75,1.68-.75s1.32.28,1.68.75c.37.48.61,1.02.61,3.95,0,1.13-.05,1.87-.09,2.32Z"/><path class="cls-5" d="m601.08,280.75v-9.87h-3.48v9.96c0,3.15,2.41,5.44,5.72,5.44s5.77-2.29,5.77-5.44v-9.96h-3.48v9.87c0,1.52-.88,2.46-2.29,2.46s-2.25-.94-2.25-2.46Z"/><polygon class="cls-5" points="621.88 279.97 627.67 279.97 627.67 276.91 621.88 276.91 621.88 273.93 628.66 273.93 628.66 270.87 618.4 270.87 618.4 286.14 628.66 286.14 628.66 283.08 621.88 283.08 621.88 279.97"/></svg>
