<?xml version="1.0" encoding="UTF-8" standalone="no"?>
<svg
   width="500"
   height="121.26729"
   viewBox="0 0 500 121.26729"
   version="1.1"
   id="svg190"
   sodipodi:docname="Logo Ville Roubaix.svg"
   inkscape:version="1.2 (dc2aeda, 2022-05-15)"
   xmlns:inkscape="http://www.inkscape.org/namespaces/inkscape"
   xmlns:sodipodi="http://sodipodi.sourceforge.net/DTD/sodipodi-0.dtd"
   xmlns="http://www.w3.org/2000/svg"
   xmlns:svg="http://www.w3.org/2000/svg">
  <defs
     id="defs194" />
  <sodipodi:namedview
     id="namedview192"
     pagecolor="#ffffff"
     bordercolor="#000000"
     borderopacity="0.25"
     inkscape:showpageshadow="2"
     inkscape:pageopacity="0.0"
     inkscape:pagecheckerboard="0"
     inkscape:deskcolor="#d1d1d1"
     showgrid="false"
     inkscape:zoom="2.3244681"
     inkscape:cx="84.535469"
     inkscape:cy="18.498856"
     inkscape:window-width="1463"
     inkscape:window-height="888"
     inkscape:window-x="0"
     inkscape:window-y="25"
     inkscape:window-maximized="0"
     inkscape:current-layer="svg190" />
  <g
     id="g577"
     transform="matrix(3.565112,0,0,3.565112,-2.7016864,-0.31729497)"
     style="stroke-width:0.280496">
    <path
       style="fill:#000000;fill-rule:evenodd;stroke-width:0.0786781"
       d="M 64.398,0.09 V 0.746 H 61.105 V 2.61 h 3.07 v 0.657 h -3.07 v 2.028 h 3.318 V 5.952 H 60.32 V 0.089 Z"
       id="path442" />
    <path
       id="path440"
       style="fill:#000000;fill-rule:evenodd;stroke-width:0.0786781"
       d="M 50.359375,0.08984375 V 5.9511719 h 2.029297 c 0.490999,0 0.913485,-0.068078 1.271484,-0.2050781 a 2.22,2.22 0 0 0 0.886719,-0.5957032 c 0.232,-0.2599997 0.401719,-0.5809379 0.511719,-0.9609375 0.111,-0.3799996 0.166015,-0.8155942 0.166015,-1.3085937 0,-0.9409991 -0.245328,-1.641563 -0.736328,-2.10156252 -0.489999,-0.45999954 -1.18961,-0.68945313 -2.099609,-0.68945313 h -0.002 z m 0.787109,0.65625 h 1.324219 c 0.363,0 0.669969,0.0503907 0.917969,0.15039063 a 1.508,1.508 0 0 1 0.607422,0.44531252 1.827,1.827 0 0 1 0.339844,0.7050781 c 0.069,0.2759997 0.101562,0.5894535 0.101562,0.9394531 0,0.3609997 -0.03538,0.6698284 -0.109375,0.9238281 -0.076,0.2559998 -0.169156,0.466719 -0.285156,0.6367188 -0.116,0.1699998 -0.247532,0.3043438 -0.394531,0.4023438 a 1.89,1.89 0 0 1 -0.441407,0.2246093 c -0.15,0.053 -0.290828,0.085609 -0.423828,0.099609 -0.132,0.013 -0.242078,0.021484 -0.330078,0.021484 h -1.306641 z" />
    <path
       style="fill:#000000;fill-rule:evenodd;stroke-width:0.0786781"
       d="m 39.417,0.125 v 0.63 H 35.8 v 1.788 h 3.371 v 0.63 H 35.8 V 5.12 h 3.644 V 5.751 H 34.937 V 0.125 Z"
       id="path436" />
    <path
       style="fill:#000000;fill-rule:evenodd;stroke-width:0.0786781"
       d="m 26.6,0.125 v 4.994 h 2.702 V 5.75 H 25.92 V 0.125 Z"
       id="path434" />
    <path
       style="fill:#000000;fill-rule:evenodd;stroke-width:0.0786781"
       d="m 17.584,0.125 v 4.994 h 2.702 V 5.75 H 16.905 V 0.125 Z"
       id="path432" />
    <path
       style="fill:#000000;fill-rule:evenodd;stroke-width:0.280496"
       d="m 10.67,5.75 h 0.679 V 0.125 H 10.67 Z"
       id="path430" />
    <path
       style="fill:#000000;fill-rule:evenodd;stroke-width:0.0786781"
       d="M 2.973,5.75 1.127,0.125 h 0.75 l 1.5,4.877 H 3.392 L 4.906,0.125 H 5.635 L 3.767,5.75 Z"
       id="path182" />
  </g>
  <g
     id="g588"
     transform="matrix(3.565112,0,0,3.565112,-2.7016864,-0.31729497)"
     style="stroke-width:0.280496">
    <path
       style="fill:#000000;fill-rule:evenodd;stroke-width:0.0786781"
       d="m 112.741,32.894 h 5.76 v -21.77 h -5.76 z"
       id="path464" />
    <path
       id="path462"
       style="fill:#000000;fill-rule:evenodd;stroke-width:0.0786781"
       d="m 96.412109,10.994141 -10.267578,22.041015 6.697266,0.0098 1.285156,-2.736328 h 8.648437 l 1.28516,2.736328 6.5957,0.0039 -10.2793,-22.054687 z m 2.007813,8.832031 2.537108,5.724609 h -5.011718 z" />
    <path
       id="path458"
       style="fill:#000000;fill-rule:evenodd;stroke-width:0.0786781"
       d="m 68.867188,11.273438 v 21.771484 h 10.27539 c 4.480996,0 6.800031,-3.079051 6.832031,-6.873047 0,-1.927998 -0.846814,-3.545267 -2.632812,-4.447266 1.065999,-0.869999 1.724609,-2.457673 1.724609,-3.763671 0,-3.762997 -3.039035,-6.6875 -6.832031,-6.6875 z M 74.285156,16.25 h 3.511719 c 2.255996,0 2.254293,3.515625 0.0293,3.515625 h -3.541016 z m 0,8.148438 h 4.451172 c 2.255996,-10e-7 2.286246,3.701171 0.03125,3.701171 h -4.482422 z" />
    <path
       style="fill:#000000;fill-rule:evenodd;stroke-width:0.0786781"
       d="m 59.65,26.195 v -14.92 h 6.114 V 26.29 c 0,4.952 -4.755,7.814 -9.903,7.814 -5.112,0 -9.938,-2.862 -9.938,-7.814 V 11.275 h 6.112 v 14.92 c 0,1.833 1.967,2.732 3.826,2.732 1.86,0 3.79,-0.9 3.79,-2.732"
       id="path452" />
    <path
       id="path450"
       style="fill:#000000;fill-rule:evenodd;stroke-width:0.0786781"
       d="m 31.898438,10.537109 c -5.789995,0 -11.580079,3.841946 -11.580079,11.523438 0,15.393984 23.160157,15.393984 23.160157,0 0,-7.681492 -5.790084,-11.523438 -11.580078,-11.523438 z m 0.01562,5.523438 c 2.830498,0 5.660157,2.000504 5.660157,6 0,8.061992 -11.320313,8.061992 -11.320313,0 0,-3.999496 2.829659,-6 5.660156,-6 z" />
    <path
       id="path446"
       style="fill:#000000;fill-rule:evenodd;stroke-width:0.0786781"
       d="m 0.7578125,11.273438 v 21.771484 h 5.6074219 v -6.40625 h 2.9140625 l 3.7597651,6.40625 6.767579,0.01172 -4.792969,-7.726563 c 5.682994,-3.734996 4.002272,-14.05664 -4.636719,-14.05664 z m 8.6210937,4.96289 c 0.3348122,0.0015 0.6690468,0.0059 0.9980468,0.01367 3.195997,0.032 3.039997,5.443359 0,5.443359 H 6.3652344 V 16.25 c 0.986999,0 2.0092354,-0.01803 3.0136718,-0.01367 z" />
    <path
       fill="#d9146b"
       d="m 120.963,11.12 h 6.435 l 6.587,10.89 a 0.165,0.165 0 0 1 -0.003,0.175 l -6.912,10.727 h -6.517 l 6.748,-10.39 a 0.835,0.835 0 0 0 0.015,-0.887 l -6.353,-10.514 z"
       id="path184"
       style="fill-rule:evenodd;stroke-width:0.0786781" />
    <path
       id="path426"
       style="fill:#000000;fill-rule:evenodd;stroke-width:0.0786781"
       d="m 134.86719,11.140625 -2.52344,3.84375 3.01953,4.986328 5.64258,-8.830078 z m 0.55664,13.029297 -3.22071,5.259766 2.08204,3.486328 6.5,0.01172 z" />
  </g>
</svg>
